<svg width="22" height="19" viewBox="0 0 22 19" fill="none" xmlns="http://www.w3.org/2000/svg">
<path d="M9.5 18L5.85 11.375H4.825V18H0.55V0.449999H7.725C9.10833 0.449999 10.2833 0.691666 11.25 1.175C12.2333 1.65833 12.9667 2.325 13.45 3.175C13.9333 4.00833 14.175 4.94167 14.175 5.975C14.175 7.14167 13.8417 8.18333 13.175 9.1C12.525 10.0167 11.5583 10.6667 10.275 11.05L14.325 18H9.5ZM4.825 8.35H7.475C8.25833 8.35 8.84167 8.15833 9.225 7.775C9.625 7.39167 9.825 6.85 9.825 6.15C9.825 5.48333 9.625 4.95833 9.225 4.575C8.84167 4.19167 8.25833 4 7.475 4H4.825V8.35ZM18.8586 18.2C18.1086 18.2 17.4919 17.9833 17.0086 17.55C16.5419 17.1 16.3086 16.55 16.3086 15.9C16.3086 15.2333 16.5419 14.675 17.0086 14.225C17.4919 13.775 18.1086 13.55 18.8586 13.55C19.5919 13.55 20.1919 13.775 20.6586 14.225C21.1419 14.675 21.3836 15.2333 21.3836 15.9C21.3836 16.55 21.1419 17.1 20.6586 17.55C20.1919 17.9833 19.5919 18.2 18.8586 18.2Z" fill="white"/>
</svg>
